<mxfile host="app.diagrams.net" modified="2021-05-09T16:34:57.424Z" agent="5.0 (Windows NT 10.0; Win64; x64) AppleWebKit/537.36 (KHTML, like Gecko) Chrome/90.0.4430.93 Safari/537.36" etag="nZOF4YPiZbbe7X-a2l2g" version="14.6.11" type="github">
  <diagram id="whum5KUoKy-AiShSeKjw" name="Page-1">
    <mxGraphModel dx="687" dy="355" grid="1" gridSize="10" guides="1" tooltips="1" connect="1" arrows="1" fold="1" page="1" pageScale="1" pageWidth="1169" pageHeight="827" math="0" shadow="0">
      <root>
        <mxCell id="0" />
        <mxCell id="1" parent="0" />
        <mxCell id="3rzmkG7fn2VMiRptU1J5-3" value="Yes" style="edgeLabel;html=1;align=center;verticalAlign=middle;resizable=0;points=[];fontSize=8;fontFamily=Georgia;" vertex="1" connectable="0" parent="1">
          <mxGeometry x="433.99777777777786" y="464" as="geometry" />
        </mxCell>
        <mxCell id="7800FAnf7w5shlVnYeUa-6" style="edgeStyle=orthogonalEdgeStyle;rounded=0;orthogonalLoop=1;jettySize=auto;html=1;entryX=0;entryY=0.5;entryDx=0;entryDy=0;fontFamily=Georgia;startArrow=none;startFill=0;endArrow=classic;endFill=1;" parent="1" source="T9op1pWDXtT6hMXo4TAV-2" target="7800FAnf7w5shlVnYeUa-3" edge="1">
          <mxGeometry relative="1" as="geometry" />
        </mxCell>
        <mxCell id="cBc5ip0D68nON8SmHcBV-12" style="edgeStyle=orthogonalEdgeStyle;rounded=0;orthogonalLoop=1;jettySize=auto;html=1;fontFamily=Georgia;fontSize=8;endArrow=none;endFill=0;startArrow=classic;startFill=1;" parent="1" source="T9op1pWDXtT6hMXo4TAV-2" edge="1">
          <mxGeometry relative="1" as="geometry">
            <mxPoint x="240" y="360" as="targetPoint" />
          </mxGeometry>
        </mxCell>
        <mxCell id="T9op1pWDXtT6hMXo4TAV-2" value="&lt;font face=&quot;Georgia&quot; style=&quot;font-size: 11px&quot;&gt;Randomly sample and set component weightings for candidate group&lt;/font&gt;" style="rounded=0;whiteSpace=wrap;html=1;" parent="1" vertex="1">
          <mxGeometry x="270" y="310" width="79" height="100" as="geometry" />
        </mxCell>
        <mxCell id="7800FAnf7w5shlVnYeUa-9" style="edgeStyle=orthogonalEdgeStyle;rounded=0;orthogonalLoop=1;jettySize=auto;html=1;entryX=0;entryY=0.5;entryDx=0;entryDy=0;fontFamily=Georgia;startArrow=none;startFill=0;endArrow=classic;endFill=1;" parent="1" source="7800FAnf7w5shlVnYeUa-3" target="7800FAnf7w5shlVnYeUa-8" edge="1">
          <mxGeometry relative="1" as="geometry" />
        </mxCell>
        <mxCell id="7800FAnf7w5shlVnYeUa-3" value="&lt;font face=&quot;Georgia&quot;&gt;&lt;span style=&quot;font-size: 11px&quot;&gt;Wait two minutes&lt;/span&gt;&lt;/font&gt;" style="rounded=0;whiteSpace=wrap;html=1;" parent="1" vertex="1">
          <mxGeometry x="370" y="310" width="50" height="100" as="geometry" />
        </mxCell>
        <mxCell id="7800FAnf7w5shlVnYeUa-11" style="edgeStyle=orthogonalEdgeStyle;rounded=0;orthogonalLoop=1;jettySize=auto;html=1;entryX=0;entryY=0.5;entryDx=0;entryDy=0;fontFamily=Georgia;startArrow=none;startFill=0;endArrow=classic;endFill=1;" parent="1" source="7800FAnf7w5shlVnYeUa-8" target="7800FAnf7w5shlVnYeUa-10" edge="1">
          <mxGeometry relative="1" as="geometry" />
        </mxCell>
        <mxCell id="7800FAnf7w5shlVnYeUa-8" value="&lt;font face=&quot;Georgia&quot;&gt;&lt;span style=&quot;font-size: 11px&quot;&gt;Retrieve response time distributions of control and candidate groups&lt;/span&gt;&lt;/font&gt;" style="rounded=0;whiteSpace=wrap;html=1;" parent="1" vertex="1">
          <mxGeometry x="440" y="310" width="80" height="100" as="geometry" />
        </mxCell>
        <mxCell id="3rzmkG7fn2VMiRptU1J5-2" style="edgeStyle=orthogonalEdgeStyle;rounded=0;orthogonalLoop=1;jettySize=auto;html=1;entryX=1;entryY=0.5;entryDx=0;entryDy=0;fontFamily=Georgia;fontSize=11;startArrow=none;startFill=0;endArrow=classic;endFill=1;exitX=1;exitY=0.5;exitDx=0;exitDy=0;" edge="1" parent="1" source="7800FAnf7w5shlVnYeUa-10" target="cBc5ip0D68nON8SmHcBV-1">
          <mxGeometry relative="1" as="geometry" />
        </mxCell>
        <mxCell id="7800FAnf7w5shlVnYeUa-10" value="&lt;font face=&quot;Georgia&quot;&gt;&lt;span style=&quot;font-size: 11px&quot;&gt;Run linear regression on list of linear equations to obtain weightings&lt;/span&gt;&lt;/font&gt;" style="rounded=0;whiteSpace=wrap;html=1;" parent="1" vertex="1">
          <mxGeometry x="544.5" y="310" width="80" height="100" as="geometry" />
        </mxCell>
        <mxCell id="cBc5ip0D68nON8SmHcBV-5" style="edgeStyle=orthogonalEdgeStyle;rounded=0;orthogonalLoop=1;jettySize=auto;html=1;entryX=1;entryY=0.5;entryDx=0;entryDy=0;fontFamily=Georgia;fontSize=8;" parent="1" source="cBc5ip0D68nON8SmHcBV-1" target="cBc5ip0D68nON8SmHcBV-4" edge="1">
          <mxGeometry relative="1" as="geometry" />
        </mxCell>
        <mxCell id="cBc5ip0D68nON8SmHcBV-6" value="Yes" style="edgeLabel;html=1;align=center;verticalAlign=middle;resizable=0;points=[];fontSize=8;fontFamily=Georgia;" parent="cBc5ip0D68nON8SmHcBV-5" vertex="1" connectable="0">
          <mxGeometry x="-0.8286" relative="1" as="geometry">
            <mxPoint x="-1" y="-6" as="offset" />
          </mxGeometry>
        </mxCell>
        <mxCell id="3rzmkG7fn2VMiRptU1J5-4" style="edgeStyle=orthogonalEdgeStyle;rounded=0;orthogonalLoop=1;jettySize=auto;html=1;entryX=0;entryY=0.5;entryDx=0;entryDy=0;fontFamily=Georgia;fontSize=11;startArrow=none;startFill=0;endArrow=none;endFill=0;" edge="1" parent="1" source="cBc5ip0D68nON8SmHcBV-1" target="T9op1pWDXtT6hMXo4TAV-2">
          <mxGeometry relative="1" as="geometry">
            <Array as="points">
              <mxPoint x="585" y="530" />
              <mxPoint x="250" y="530" />
              <mxPoint x="250" y="360" />
            </Array>
          </mxGeometry>
        </mxCell>
        <mxCell id="3rzmkG7fn2VMiRptU1J5-9" value="No" style="edgeLabel;html=1;align=center;verticalAlign=middle;resizable=0;points=[];fontSize=8;fontFamily=Georgia;" vertex="1" connectable="0" parent="3rzmkG7fn2VMiRptU1J5-4">
          <mxGeometry x="-0.9841" y="1" relative="1" as="geometry">
            <mxPoint x="-1" y="1" as="offset" />
          </mxGeometry>
        </mxCell>
        <mxCell id="cBc5ip0D68nON8SmHcBV-1" value="Candidate &lt;br style=&quot;font-size: 10px;&quot;&gt;p95 &amp;lt; control p95?" style="rhombus;whiteSpace=wrap;html=1;fontFamily=Georgia;fontSize=10;" parent="1" vertex="1">
          <mxGeometry x="545" y="430" width="80" height="80" as="geometry" />
        </mxCell>
        <mxCell id="cBc5ip0D68nON8SmHcBV-10" style="edgeStyle=orthogonalEdgeStyle;rounded=0;orthogonalLoop=1;jettySize=auto;html=1;entryX=1;entryY=0.5;entryDx=0;entryDy=0;fontFamily=Georgia;fontSize=8;" parent="1" source="cBc5ip0D68nON8SmHcBV-4" target="cBc5ip0D68nON8SmHcBV-9" edge="1">
          <mxGeometry relative="1" as="geometry">
            <Array as="points" />
          </mxGeometry>
        </mxCell>
        <mxCell id="3rzmkG7fn2VMiRptU1J5-7" style="edgeStyle=orthogonalEdgeStyle;rounded=0;orthogonalLoop=1;jettySize=auto;html=1;fontFamily=Georgia;fontSize=11;startArrow=none;startFill=0;endArrow=none;endFill=0;" edge="1" parent="1" source="cBc5ip0D68nON8SmHcBV-4">
          <mxGeometry relative="1" as="geometry">
            <mxPoint x="480" y="530" as="targetPoint" />
          </mxGeometry>
        </mxCell>
        <mxCell id="cBc5ip0D68nON8SmHcBV-4" value="Significant change via K-S test?" style="rhombus;whiteSpace=wrap;html=1;fontFamily=Georgia;fontSize=10;" parent="1" vertex="1">
          <mxGeometry x="440" y="430" width="80" height="80" as="geometry" />
        </mxCell>
        <mxCell id="3rzmkG7fn2VMiRptU1J5-6" style="edgeStyle=orthogonalEdgeStyle;rounded=0;orthogonalLoop=1;jettySize=auto;html=1;fontFamily=Georgia;fontSize=11;startArrow=none;startFill=0;endArrow=none;endFill=0;" edge="1" parent="1" source="cBc5ip0D68nON8SmHcBV-9">
          <mxGeometry relative="1" as="geometry">
            <mxPoint x="250" y="469.9999999999999" as="targetPoint" />
          </mxGeometry>
        </mxCell>
        <mxCell id="cBc5ip0D68nON8SmHcBV-9" value="&lt;font face=&quot;Georgia&quot;&gt;&lt;span style=&quot;font-size: 11px&quot;&gt;Set control (main) weightings to candidate weightings&lt;/span&gt;&lt;/font&gt;" style="rounded=0;whiteSpace=wrap;html=1;" parent="1" vertex="1">
          <mxGeometry x="320" y="420" width="80" height="100" as="geometry" />
        </mxCell>
        <mxCell id="cBc5ip0D68nON8SmHcBV-14" value="Start" style="text;html=1;strokeColor=none;fillColor=none;align=center;verticalAlign=middle;whiteSpace=wrap;rounded=0;fontFamily=Georgia;fontSize=11;rotation=-90;" parent="1" vertex="1">
          <mxGeometry x="213" y="350" width="40" height="20" as="geometry" />
        </mxCell>
        <mxCell id="3rzmkG7fn2VMiRptU1J5-10" value="No" style="edgeLabel;html=1;align=center;verticalAlign=middle;resizable=0;points=[];fontSize=8;fontFamily=Georgia;" vertex="1" connectable="0" parent="1">
          <mxGeometry x="480" y="515.9986046511629" as="geometry" />
        </mxCell>
      </root>
    </mxGraphModel>
  </diagram>
</mxfile>
